<svg version="1.0" xmlns="http://www.w3.org/2000/svg"
 width="132.000000pt" height="31.000000pt" viewBox="0 0 132.000000 31.000000"
 preserveAspectRatio="xMidYMid meet">
<metadata>
Created by potrace 1.16, written by Peter Selinger 2001-2019
</metadata>
<g transform="translate(0.000000,31.000000) scale(0.015658,-0.003677)"
fill="#000000" stroke="none">
<path d="M3740 7233 c-625 -26 -1124 -73 -1540 -144 -198 -34 -441 -87 -454
-99 -9 -9 99 -1049 112 -1083 6 -15 13 -13 62 20 188 126 554 237 1000 303
667 97 1677 104 2375 15 506 -65 944 -191 1134 -329 l47 -33 58 536 c32 295
60 544 62 553 6 19 -7 24 -181 63 -559 126 -1482 208 -2285 203 -179 -1 -354
-3 -390 -5z m65 -438 c51 -126 92 -231 91 -231 0 -1 -22 -4 -48 -6 l-48 -6
-20 57 -21 56 -91 -5 -92 -5 -14 -57 c-13 -54 -15 -56 -50 -61 -21 -2 -39 -3
-41 -1 -3 3 113 446 126 481 4 10 21 13 60 11 l55 -3 93 -230z m1169 183 c-2
-24 -9 -131 -15 -238 -6 -107 -13 -198 -15 -201 -1 -3 -19 -3 -38 -1 -31 4
-36 8 -36 29 l0 25 -31 -26 c-53 -45 -132 -31 -170 31 -26 42 -36 141 -20 201
29 107 145 158 210 93 18 -18 19 -18 25 18 3 20 6 53 6 74 l0 37 44 0 44 0 -4
-42z m-1736 -21 c3 -35 2 -36 -35 -42 -83 -13 -85 -15 -80 -38 11 -45 50 -368
45 -372 -2 -3 -25 -8 -49 -11 l-44 -6 -24 190 c-13 105 -27 195 -30 201 -4 6
-28 7 -64 2 -31 -4 -59 -5 -62 -3 -5 5 -7 71 -2 73 15 4 325 46 332 44 6 -1
11 -18 13 -38z m-372 -257 c23 -129 41 -236 40 -237 -1 -2 -22 -6 -47 -9 l-44
-6 -39 228 c-21 126 -39 233 -40 238 -1 10 48 25 74 22 10 -1 25 -60 56 -236z
m1280 211 c32 -19 70 -84 59 -101 -3 -6 -21 -10 -40 -10 -26 0 -34 5 -39 24
-7 28 -36 41 -72 32 -70 -18 -70 -204 -1 -221 32 -8 65 9 77 41 8 19 17 24 46
24 35 0 36 -1 31 -30 -20 -96 -131 -144 -217 -94 -86 50 -106 213 -38 300 42
53 136 70 194 35z m379 -5 c39 -25 45 -54 45 -207 l0 -139 -39 0 c-34 0 -40 4
-45 26 -6 23 -9 24 -19 11 -7 -9 -30 -24 -51 -32 -70 -29 -144 2 -166 70 -10
30 -9 41 7 72 24 50 67 73 152 80 70 6 71 6 71 35 0 33 -16 42 -74 42 -29 1
-43 -6 -60 -25 -17 -20 -27 -24 -50 -20 -16 3 -31 11 -33 17 -6 19 46 73 80
84 46 14 152 5 182 -14z m-1862 -173 c39 -176 45 -236 25 -277 -12 -29 -73
-61 -132 -72 -43 -8 -56 3 -56 49 0 21 5 27 20 27 40 0 90 28 90 50 0 11 -16
94 -36 183 -44 203 -43 189 -14 198 65 18 62 23 103 -158z m2625 120 c48 -36
65 -69 70 -134 l5 -61 -39 5 c-22 4 -64 9 -94 12 -30 3 -67 8 -82 11 -27 5
-28 4 -28 -34 0 -27 6 -45 20 -57 29 -26 84 -24 113 3 18 17 31 21 55 16 40
-8 41 -27 4 -64 -53 -52 -150 -60 -217 -16 -37 24 -65 87 -65 146 0 84 41 157
105 186 40 19 119 12 153 -13z m236 -19 c9 -3 16 -17 16 -30 l0 -24 37 20 c45
24 62 25 108 6 21 -9 41 -29 54 -53 11 -21 20 -33 21 -26 0 6 20 21 46 33 44
22 47 22 89 6 81 -31 90 -75 51 -261 l-22 -110 -40 3 c-21 2 -41 5 -43 8 -3 2
5 57 17 122 12 64 22 122 22 129 0 22 -32 43 -65 43 -48 0 -64 -28 -90 -158
l-21 -107 -35 3 c-19 2 -38 8 -43 13 -6 5 -1 57 14 135 l24 126 -24 20 c-16
13 -32 17 -49 13 -48 -12 -61 -37 -84 -154 l-21 -111 -31 0 c-61 0 -61 2 -24
189 31 159 35 171 55 171 12 0 29 -3 38 -6z m-3180 -73 c37 -39 44 -91 18
-136 l-21 -35 24 0 c13 0 37 -12 54 -26 61 -51 60 -151 -2 -198 -32 -24 -254
-102 -263 -93 -3 3 -38 106 -78 231 l-73 225 106 35 c58 19 117 36 131 38 37
5 74 -9 104 -41z m3757 -53 c39 -11 39 -12 39 -62 0 -28 3 -81 7 -118 l6 -68
65 93 c35 50 66 93 67 95 2 2 17 -3 34 -10 l32 -13 -132 -180 c-72 -99 -141
-188 -153 -197 -24 -20 -82 -23 -112 -5 -18 10 -19 17 -12 44 8 30 11 32 34
23 37 -14 52 -12 75 11 17 17 19 29 15 87 -11 142 -17 312 -10 312 4 0 24 -5
45 -12z"/>
<path d="M4754 6814 c-19 -28 -30 -109 -20 -148 14 -58 69 -74 111 -31 22 21
25 33 25 98 0 84 -14 107 -68 107 -23 0 -36 -7 -48 -26z"/>
<path d="M2152 6703 c-48 -17 -49 -21 -17 -96 17 -42 18 -42 76 -22 56 20 79
42 79 76 0 57 -51 73 -138 42z"/>
<path d="M2220 6513 c-25 -9 -46 -17 -47 -18 -3 -2 38 -125 41 -125 17 0 124
44 138 57 22 20 23 51 2 81 -18 27 -66 28 -134 5z"/>
<path d="M6605 6626 c-2 -12 -20 -172 -40 -356 -19 -184 -38 -354 -41 -378
l-6 -43 -179 -90 -179 -89 0 30 c0 25 -7 33 -49 54 -171 87 -584 187 -971 235
-601 75 -1389 73 -1970 -4 -359 -48 -780 -153 -941 -236 l-39 -19 0 -163 c0
-683 88 -1402 227 -1857 84 -278 279 -660 477 -936 244 -339 572 -654 882
-846 98 -61 280 -154 355 -182 44 -17 47 -17 102 4 170 64 466 246 652 401
526 440 936 1089 1100 1739 105 416 175 1060 175 1603 0 119 3 167 12 167 6 0
225 -65 486 -145 261 -80 478 -144 481 -143 4 2 -39 138 -96 302 l-104 299
151 265 c83 145 148 268 143 272 -4 4 -146 37 -316 72 -300 63 -308 64 -312
44z m-2060 -726 c587 -27 1059 -102 1395 -222 l95 -34 -2 -238 c-4 -568 -81
-1189 -198 -1596 -106 -369 -325 -779 -601 -1125 -105 -131 -326 -354 -444
-448 -179 -143 -430 -298 -559 -347 l-59 -22 -82 36 c-108 47 -311 169 -434
261 -391 294 -719 699 -956 1180 -126 257 -193 459 -255 770 -75 375 -135
1004 -135 1432 l0 92 81 31 c454 175 1324 268 2154 230z"/>
<path d="M3783 5691 c-72 -3 -134 -9 -138 -12 -8 -8 520 -874 532 -873 6 1
268 417 323 515 8 14 3 15 -38 12 -53 -4 -84 9 -65 28 7 7 33 10 70 7 l59 -4
93 154 c65 107 90 156 82 161 -29 18 -601 25 -918 12z m469 -217 c14 -8 37
-28 49 -46 35 -49 31 -106 -17 -205 l-39 -83 -70 1 -70 0 -40 86 c-60 130 -47
204 45 251 47 24 89 23 142 -4z m-4 -416 l-3 -63 -70 0 -70 0 -3 63 -3 62 76
0 76 0 -3 -62z"/>
<path d="M3300 5659 c-253 -29 -531 -81 -684 -130 l-99 -31 6 -276 c11 -480
51 -866 123 -1190 l16 -72 505 2 506 3 189 310 c104 171 194 320 200 331 9 19
-31 90 -308 543 -311 511 -318 521 -348 520 -17 -1 -65 -5 -106 -10z m327
-604 c12 -9 31 -29 43 -45 l22 -30 -22 -35 -22 -35 47 0 47 0 -57 -61 c-31
-34 -66 -74 -77 -90 -34 -45 -73 -38 -101 17 -20 39 -58 64 -97 64 -37 0 -37
5 -2 61 15 24 36 64 47 88 11 25 33 52 50 62 36 23 93 24 122 4z m-178 -300
c16 -14 33 -36 37 -48 3 -12 13 -30 21 -39 13 -15 10 -23 -30 -80 -24 -35 -57
-88 -72 -118 -39 -80 -61 -100 -106 -100 -66 0 -139 80 -139 152 0 41 24 81
108 181 62 74 67 77 108 77 31 0 51 -7 73 -25z"/>
<path d="M4600 5154 c-173 -285 -316 -521 -318 -525 -2 -4 88 -156 199 -338
l202 -331 503 0 503 0 10 38 c17 63 59 301 75 427 30 229 47 471 53 772 l6
301 -95 30 c-169 55 -486 112 -758 137 l-65 6 -315 -517z m610 -14 c16 -17 34
-46 40 -65 13 -39 13 -39 41 -24 11 5 47 15 81 20 53 9 63 8 80 -8 16 -15 18
-25 13 -63 -4 -25 -13 -60 -21 -79 -19 -45 -19 -45 20 -59 53 -19 96 -64 96
-100 0 -34 -44 -79 -99 -101 -18 -8 -30 -19 -27 -26 14 -39 29 -96 24 -100 -2
-3 -16 1 -31 8 -19 8 -27 20 -27 37 0 44 -13 52 -63 45 -44 -7 -45 -8 -52 -52
-7 -50 1 -63 45 -63 17 0 30 -9 42 -30 16 -29 16 -30 -1 -30 -10 0 -38 7 -61
15 -24 8 -44 14 -45 13 -2 -2 -12 -22 -23 -45 -25 -48 -65 -83 -97 -83 -24 0
-95 70 -95 93 -1 34 -16 39 -64 23 -55 -19 -117 -21 -134 -4 -17 17 -15 102 3
145 8 20 14 37 13 38 -2 2 -22 12 -46 24 -58 30 -82 56 -82 90 0 39 31 76 85
97 25 11 43 24 41 29 -13 29 -29 86 -25 89 2 2 16 2 32 -1 20 -4 27 -11 27
-28 0 -46 10 -56 49 -49 48 9 57 18 64 61 7 43 -2 53 -50 53 -18 0 -33 5 -33
10 0 6 -9 19 -20 30 l-20 20 35 0 c20 0 52 -7 72 -15 20 -8 37 -14 38 -13 0 2
10 22 20 46 37 85 104 107 155 52z"/>
<path d="M5062 4847 c-28 -28 -32 -40 -32 -85 0 -43 5 -57 31 -87 28 -32 36
-35 83 -35 47 0 56 4 89 38 32 33 37 44 37 86 0 41 -5 53 -34 82 -30 30 -40
34 -88 34 -48 0 -58 -4 -86 -33z"/>
<path d="M3919 4036 c-271 -444 -310 -504 -349 -523 -19 -10 -117 -13 -384
-13 -332 0 -358 -1 -352 -17 19 -49 160 -293 227 -393 213 -317 491 -597 784
-789 113 -74 300 -171 331 -171 27 0 160 65 275 135 400 244 767 647 1011
1111 32 61 58 114 58 117 0 4 -160 7 -355 7 -392 0 -390 0 -437 62 -14 18
-139 220 -278 448 -139 228 -258 421 -265 428 -10 11 -60 -64 -266 -402z m359
-396 c171 -86 222 -284 116 -452 -51 -80 -145 -128 -254 -128 -145 0 -241 70
-294 214 -25 66 -18 163 17 232 75 147 265 209 415 134z m-704 -316 c18 -18
21 -45 5 -61 -7 -7 -3 -12 15 -17 30 -7 39 -32 34 -102 -2 -35 -7 -49 -18 -49
-12 0 -16 -18 -20 -80 l-5 -80 -41 -2 -42 -1 -6 45 c-3 25 -6 61 -6 79 0 24
-5 34 -15 34 -12 0 -15 14 -15 68 0 71 10 92 44 92 16 0 17 3 8 12 -7 7 -12
21 -12 33 0 42 44 59 74 29z m1187 6 c21 -12 25 -50 7 -68 -9 -9 -7 -12 9 -12
34 0 44 -23 41 -92 -2 -48 -7 -63 -18 -63 -12 0 -16 -18 -20 -80 -4 -66 -8
-80 -22 -83 -14 -3 -18 4 -19 30 l-1 33 -7 -30 c-3 -17 -13 -30 -21 -30 -12 0
-16 18 -20 80 -4 62 -8 80 -20 80 -11 0 -16 15 -18 63 -3 69 7 92 41 92 16 0
18 3 9 12 -17 17 -15 44 4 62 18 19 28 20 55 6z m-999 -207 c22 -20 23 -41 1
-65 -15 -17 -15 -18 9 -18 40 0 49 -21 46 -97 -2 -52 -6 -68 -18 -68 -12 0
-16 -18 -20 -85 -5 -79 -7 -85 -27 -88 -22 -3 -23 0 -25 85 l-2 88 -3 -87 c-3
-80 -6 -88 -23 -88 -18 0 -20 7 -20 85 0 78 -2 85 -20 85 -18 0 -20 7 -20 73
0 79 9 97 48 97 21 0 22 1 8 16 -21 20 -20 43 1 66 20 22 41 23 65 1z m830 0
c22 -20 23 -41 1 -65 -15 -17 -15 -18 9 -18 40 0 49 -21 46 -97 -2 -52 -6 -68
-18 -68 -12 0 -16 -18 -20 -85 -5 -79 -7 -85 -27 -88 -22 -3 -23 0 -25 85 l-2
88 -3 -87 c-3 -80 -6 -88 -23 -88 -18 0 -20 7 -20 85 0 78 -2 85 -20 85 -18 0
-20 7 -20 73 0 79 9 97 48 97 21 0 22 1 8 16 -21 20 -20 43 1 66 20 22 41 23
65 1z m-632 -113 c24 -24 26 -53 4 -71 -13 -11 -11 -14 18 -23 l33 -11 3 -74
c4 -89 -2 -109 -23 -91 -13 11 -15 2 -15 -73 0 -98 -5 -117 -31 -117 -17 0
-19 9 -21 93 l-2 92 -5 -90 c-5 -81 -8 -90 -26 -90 -18 0 -20 8 -25 90 -4 71
-8 90 -20 90 -12 0 -16 17 -18 78 -3 86 6 107 45 107 23 0 23 1 9 22 -9 12
-16 28 -16 35 0 18 37 53 55 53 8 0 24 -9 35 -20z m440 0 c24 -24 26 -53 4
-71 -13 -11 -11 -14 18 -23 l33 -11 3 -74 c3 -87 -2 -109 -22 -92 -12 10 -15
-4 -21 -88 -7 -89 -10 -101 -26 -101 -17 0 -19 9 -21 93 l-2 92 -5 -90 c-5
-81 -8 -90 -26 -90 -18 0 -20 8 -23 100 -2 60 -6 94 -11 86 -19 -29 -31 2 -31
78 0 83 9 101 49 101 23 0 23 1 8 18 -10 10 -17 26 -17 35 0 21 35 57 55 57 8
0 24 -9 35 -20z m-215 -45 c30 -29 31 -45 4 -79 l-20 -26 27 0 c51 0 64 -24
64 -117 0 -69 -3 -85 -17 -90 -9 -4 -19 -1 -21 5 -10 32 -22 -7 -22 -74 0 -72
-1 -74 -25 -74 -24 0 -25 2 -26 73 -1 78 -4 75 -14 -15 -6 -53 -9 -58 -31 -58
-23 0 -24 2 -24 73 0 70 -1 74 -22 73 -22 -1 -23 3 -26 83 -3 95 10 121 60
121 l29 0 -20 26 c-12 15 -21 33 -21 41 0 19 45 63 65 63 9 0 27 -11 40 -25z"/>
<path d="M1385 6576 c-224 -48 -289 -66 -287 -77 2 -8 68 -128 148 -266 79
-139 144 -257 144 -262 0 -5 -45 -140 -101 -301 -55 -160 -99 -294 -96 -297 6
-5 977 289 977 297 0 3 -80 44 -178 91 l-178 86 -44 396 -44 397 -25 -1 c-14
0 -156 -29 -316 -63z"/>
<path d="M6333 3341 c-44 -11 -107 -50 -177 -109 -114 -98 -311 -334 -346
-417 l-21 -48 26 -128 c27 -134 26 -147 -13 -182 -19 -18 -20 -16 -57 77 l-38
95 -51 -67 c-120 -160 -369 -390 -613 -566 -139 -100 -112 -52 -212 -371 l-51
-160 -82 -47 c-124 -71 -260 -132 -382 -173 l-110 -36 -120 36 c-153 46 -306
110 -427 179 l-94 54 -73 224 -73 223 -91 60 c-209 138 -482 378 -618 544 -41
50 -77 91 -81 91 -3 0 -21 -40 -40 -90 l-33 -90 -28 27 c-15 15 -28 34 -28 42
0 9 9 70 21 136 22 117 22 122 5 167 -24 62 -178 249 -303 369 -235 225 -364
212 -420 -42 -22 -102 -22 -389 1 -524 60 -359 209 -667 450 -931 l77 -84 163
0 163 0 18 -40 c10 -22 16 -42 14 -45 -3 -2 -39 -11 -80 -20 -135 -28 -128
-21 -68 -66 206 -154 612 -349 728 -349 l50 0 13 -47 14 -48 79 3 c105 4 437
37 650 65 152 20 181 21 270 10 186 -22 409 -43 536 -49 l126 -7 6 32 c6 30 8
31 61 31 118 0 488 179 720 348 l68 50 -58 12 c-33 6 -72 13 -89 16 -68 12
-66 10 -43 60 l22 44 156 0 157 0 70 73 c314 325 491 807 469 1277 -13 298
-81 423 -213 391z m-4148 -678 c151 -428 521 -826 1037 -1115 107 -60 132 -83
157 -151 9 -23 7 -31 -10 -48 -19 -19 -29 -21 -77 -15 -65 8 -93 24 -222 126
-414 330 -763 778 -878 1125 -28 87 -45 155 -38 155 2 0 16 -35 31 -77z m3991
40 c-20 -112 -93 -288 -180 -437 -155 -263 -463 -609 -734 -824 -122 -97 -143
-109 -208 -117 -40 -6 -54 -3 -73 12 -22 18 -23 22 -12 56 19 58 54 92 145
141 103 56 278 173 376 251 102 81 289 264 363 355 129 159 248 369 299 528
25 80 34 92 24 35z"/>
<path d="M4775 788 c-30 -46 -55 -88 -55 -95 0 -9 17 -13 55 -13 54 0 55 0 55
-30 0 -23 4 -30 20 -30 16 0 20 7 20 30 0 23 4 30 20 30 11 0 20 7 20 15 0 8
-9 15 -20 15 -18 0 -20 7 -20 80 0 73 -2 80 -20 80 -14 0 -37 -25 -75 -82z"/>
<path d="M3452 743 l3 -118 75 0 c63 0 75 3 78 18 3 15 -5 17 -57 17 l-61 0 0
35 c0 35 0 35 45 35 33 0 45 4 45 14 0 10 -14 16 -42 18 -40 3 -43 5 -43 33 0
29 2 30 53 33 37 2 52 7 52 18 0 11 -16 14 -75 14 l-76 0 3 -117z"/>
<path d="M3667 849 c-26 -15 -38 -54 -27 -84 7 -18 23 -28 64 -40 60 -18 69
-25 60 -49 -11 -28 -52 -31 -85 -7 -19 14 -34 19 -44 13 -23 -12 16 -49 59
-58 73 -13 131 35 110 93 -7 23 -20 32 -67 46 -49 16 -58 22 -55 40 3 25 52
37 71 18 13 -13 47 -14 47 -2 0 33 -93 53 -133 30z"/>
<path d="M4130 836 c-13 -15 -20 -32 -17 -40 9 -23 31 -19 42 7 12 26 53 30
68 6 19 -30 -1 -65 -63 -108 -86 -61 -80 -76 30 -76 73 0 85 2 88 18 3 15 -5
17 -59 17 l-63 0 45 28 c59 38 73 57 73 99 0 69 -94 101 -144 49z"/>
<path d="M4353 845 c-47 -33 -54 -148 -12 -193 42 -46 109 -36 136 18 28 55 8
168 -32 184 -28 11 -70 7 -92 -9z m87 -34 c16 -32 12 -122 -7 -143 -20 -22
-46 -23 -64 -2 -18 22 -18 126 0 148 18 22 58 20 71 -3z"/>
<path d="M4599 844 c-7 -8 -25 -22 -41 -30 -15 -8 -28 -21 -28 -29 0 -20 13
-19 44 6 l26 20 0 -75 0 -76 -35 0 c-29 0 -35 -4 -35 -20 0 -20 5 -21 87 -18
74 3 88 6 91 21 3 14 -4 17 -32 17 l-36 0 0 100 c0 78 -3 100 -14 100 -7 0
-19 -7 -27 -16z"/>
</g>
</svg>
