<svg data-v-6805eed4="" version="1.0" xmlns="http://www.w3.org/2000/svg" xmlns:xlink="http://www.w3.org/1999/xlink" width="100%" height="100%" viewBox="0 0 340.000000 250.000000" preserveAspectRatio="xMidYMid meet" color-interpolation-filters="sRGB" style="margin: auto;"> <rect data-v-6805eed4="" x="0" y="0" width="100%" height="100%" fill="#1cb0f6" fill-opacity="0" class="background"></rect> <rect data-v-6805eed4="" x="0" y="0" width="100%" height="100%" fill="url(#watermark)" fill-opacity="1" class="watermarklayer"></rect> <g data-v-6805eed4="" fill="#feffff" class="bordersvg b-d1" transform="translate(45.3800048828125,83.12700271606445)"><polyline stroke="#feffff" stroke-width="3" fill-opacity="0" points="124.6199951171875,20 124.6199951171875,0 0,0 0,83.74599838256836 124.6199951171875,83.74599838256836 124.6199951171875,63.74599838256836"></polyline> <g transform="translate(0,20)"><g><rect data-gra="graph-name-bg" stroke-width="2" class="i-icon-bg" x="0" y="0" width="249.239990234375" height="43.74599838256836" fill-opacity="0"></rect> <!----> <!----> </g> <g transform="translate(10,3)"><g data-gra="path-name" fill-rule="" class="tp-name" transform="matrix(0.9129193951203667,0,0,0.9129193951203667,9.981178506105309,1.0271157411989975)" opacity="1"><g transform="scale(1)"><g><path d="M19.99-20.94Q19.78-17.65 19.78-15.08L19.78-15.08Q19.78-13.72 19.87-12.95L19.87-12.95 19.19-12.95Q18.22-16.83 16.68-18.54 15.14-20.26 13.37-20.26L13.37-20.26 13.34-20.26 13.34-3.34Q13.34-2.1 13.59-1.54 13.84-0.98 14.5-0.78 15.17-0.59 16.62-0.59L16.62-0.59 16.62 0Q12.45-0.09 10.14-0.09L10.14-0.09Q8.04-0.09 4.05 0L4.05 0 4.05-0.59Q5.5-0.59 6.17-0.78 6.83-0.98 7.08-1.54 7.33-2.1 7.33-3.34L7.33-3.34 7.33-20.26 7.3-20.26Q5.5-20.26 3.98-18.56 2.45-16.86 1.48-12.95L1.48-12.95 0.8-12.95Q0.89-13.72 0.89-15.08L0.89-15.08Q0.89-17.65 0.68-20.94L0.68-20.94Q3.49-20.85 10.35-20.85L10.35-20.85Q17.18-20.85 19.99-20.94L19.99-20.94ZM32.08-15.76Q33.53-15.76 34.17-14.87 34.8-13.99 34.8-12.77L34.8-12.77Q34.8-11.44 34.05-10.66 33.3-9.88 32.08-9.88L32.08-9.88Q30.81-9.88 30.13-10.45 29.45-11.03 29.45-12.01L29.45-12.01Q29.45-13.75 30.96-14.76L30.96-14.76Q30.43-14.76 30.01-14.55L30.01-14.55Q29.27-14.22 28.77-13.5 28.27-12.77 28.27-11.92L28.27-11.92 28.27-3.05Q28.27-1.66 28.85-1.14 29.42-0.62 30.81-0.62L30.81-0.62 30.81 0Q30.43 0 30.16-0.03L30.16-0.03Q27.06-0.12 26.02-0.12L26.02-0.12Q25.11-0.12 21.91-0.03L21.91-0.03Q21.68 0 21.29 0L21.29 0 21.29-0.62Q22.21-0.62 22.58-1.08 22.95-1.54 22.95-2.75L22.95-2.75 22.95-12.12Q22.95-13.48 22.58-14.11 22.21-14.73 21.29-14.73L21.29-14.73 21.29-15.35Q22.24-15.26 23.12-15.26L23.12-15.26Q26.2-15.26 28.27-15.67L28.27-15.67 28.27-13.54Q29.39-15.76 32.08-15.76L32.08-15.76ZM39.36 0.21Q37.47 0.21 36.5-0.81 35.54-1.83 35.54-3.37L35.54-3.37Q35.54-4.7 36.24-5.57 36.93-6.45 37.88-6.92 38.83-7.39 40.33-7.9L40.33-7.9Q41.93-8.43 42.67-8.87 43.41-9.31 43.41-10.11L43.41-10.11 43.41-12.74Q43.41-13.69 42.94-14.43 42.46-15.17 41.31-15.17L41.31-15.17Q40.39-15.17 39.65-14.67L39.65-14.67Q40.66-14.31 41.15-13.62 41.64-12.92 41.64-12.06L41.64-12.06Q41.64-10.91 40.82-10.22 40.01-9.52 38.86-9.52L38.86-9.52Q37.7-9.52 37.04-10.25 36.37-10.97 36.37-12.09L36.37-12.09Q36.37-12.98 36.82-13.63 37.26-14.28 38.21-14.81L38.21-14.81Q39.86-15.76 42.94-15.76L42.94-15.76Q44.56-15.76 45.75-15.45 46.93-15.14 47.76-14.28L47.76-14.28Q48.35-13.66 48.54-12.73 48.73-11.8 48.73-10.14L48.73-10.14 48.73-2.22Q48.73-1.48 48.84-1.21 48.94-0.95 49.21-0.95L49.21-0.95Q49.41-0.95 49.65-1.08 49.89-1.21 50.09-1.39L50.09-1.39 50.39-0.89Q49.12 0.21 46.75 0.21L46.75 0.21Q44.98 0.21 44.27-0.4 43.56-1.01 43.5-2.04L43.5-2.04Q42.11 0.21 39.36 0.21L39.36 0.21ZM42.32-2.16Q42.94-2.16 43.41-2.66L43.41-2.66 43.41-8.9Q43.14-8.46 42.43-7.75L42.43-7.75Q41.64-6.98 41.22-6.25 40.81-5.53 40.81-4.29L40.81-4.29Q40.81-2.16 42.32-2.16L42.32-2.16ZM55.36-23.12Q56.89-23.12 57.74-22.47 58.58-21.82 58.58-20.58L58.58-20.58Q58.58-19.34 57.74-18.69 56.89-18.04 55.36-18.04L55.36-18.04Q53.79-18.04 52.96-18.69 52.13-19.34 52.13-20.58L52.13-20.58Q52.13-21.82 52.96-22.47 53.79-23.12 55.36-23.12L55.36-23.12ZM58.19-15.67L58.19-2.75Q58.19-1.54 58.56-1.08 58.93-0.62 59.85-0.62L59.85-0.62 59.85 0Q56.66-0.12 55.65-0.12L55.65-0.12Q54.65-0.12 51.22 0L51.22 0 51.22-0.62Q52.13-0.62 52.5-1.08 52.87-1.54 52.87-2.75L52.87-2.75 52.87-12.12Q52.87-13.48 52.5-14.11 52.13-14.73 51.22-14.73L51.22-14.73 51.22-15.35Q52.16-15.26 53.05-15.26L53.05-15.26Q56.12-15.26 58.19-15.67L58.19-15.67ZM72.65-15.76Q75.02-15.76 76-14.58L76-14.58Q76.44-14.05 76.65-13.14 76.85-12.24 76.85-10.76L76.85-10.76 76.85-2.75Q76.85-1.54 77.22-1.08 77.59-0.62 78.51-0.62L78.51-0.62 78.51 0Q75.32-0.12 74.37-0.12L74.37-0.12Q73.36-0.12 70.17 0L70.17 0 70.17-0.62Q70.94-0.62 71.24-1.08 71.53-1.54 71.53-2.75L71.53-2.75 71.53-12.36Q71.53-13.31 71.19-13.77 70.85-14.22 70.08-14.22L70.08-14.22Q69.22-14.22 68.59-13.62 67.95-13.01 67.95-12.09L67.95-12.09 67.95-2.75Q67.95-1.54 68.25-1.08 68.54-0.62 69.31-0.62L69.31-0.62 69.31 0Q66.36-0.12 65.41-0.12L65.41-0.12Q64.4-0.12 60.97 0L60.97 0 60.97-0.62Q61.89-0.62 62.26-1.08 62.63-1.54 62.63-2.75L62.63-2.75 62.63-12.12Q62.63-13.48 62.26-14.11 61.89-14.73 60.97-14.73L60.97-14.73 60.97-15.35Q61.92-15.26 62.81-15.26L62.81-15.26Q65.88-15.26 67.95-15.67L67.95-15.67 67.95-13.54Q69.28-15.76 72.65-15.76L72.65-15.76ZM88.68-2.81Q90.84-2.81 92.26-4.79L92.26-4.79 92.76-4.61Q92.11-2.54 90.56-1.06 89.01 0.41 86.58 0.41L86.58 0.41Q83.48 0.41 81.61-1.51 79.75-3.43 79.75-7.66L79.75-7.66Q79.75-11.71 81.84-13.74 83.92-15.76 87.35-15.76L87.35-15.76Q92.94-15.76 92.94-9.14L92.94-9.14 85.31-9.14Q85.28-8.78 85.28-8.07L85.28-8.07Q85.28-5.23 86.27-4.02 87.26-2.81 88.68-2.81L88.68-2.81ZM87.14-15.08Q85.49-15.08 85.19-9.7L85.19-9.7 88.62-9.7Q88.65-12.06 88.28-13.57 87.91-15.08 87.14-15.08L87.14-15.08ZM103.56-2.81Q105.71-2.81 107.13-4.79L107.13-4.79 107.64-4.61Q106.99-2.54 105.43-1.06 103.88 0.41 101.46 0.41L101.46 0.41Q98.35 0.41 96.49-1.51 94.63-3.43 94.63-7.66L94.63-7.66Q94.63-11.71 96.71-13.74 98.8-15.76 102.23-15.76L102.23-15.76Q107.81-15.76 107.81-9.14L107.81-9.14 100.19-9.14Q100.16-8.78 100.16-8.07L100.16-8.07Q100.16-5.23 101.15-4.02 102.14-2.81 103.56-2.81L103.56-2.81ZM102.02-15.08Q100.36-15.08 100.07-9.7L100.07-9.7 103.5-9.7Q103.53-12.06 103.16-13.57 102.79-15.08 102.02-15.08L102.02-15.08Z" transform="translate(-0.6800000071525574, 23.18000030517578)"></path></g> <!----> <!----> <!----> <!----> <!----> <!----> <g data-gra="path-name-1" fill="#feffff" transform="translate(110.12999725341797,0)"><g transform="scale(1)"><path d="M7.57-21.26L7.57-21.26Q9.05-21.26 9.82-20.92 10.59-20.58 11.18-20.17L11.18-20.17Q11.53-19.96 11.75-19.86 11.98-19.75 12.18-19.75L12.18-19.75Q12.66-19.75 12.83-21.05L12.83-21.05 13.51-21.05Q13.48-20.55 13.44-19.86 13.4-19.16 13.38-18.02 13.37-16.88 13.37-15.02L13.37-15.02 12.69-15.02Q12.6-16.44 12.06-17.74 11.53-19.04 10.51-19.87 9.49-20.7 7.84-20.7L7.84-20.7Q6.27-20.7 5.25-19.75 4.23-18.81 4.23-17.27L4.23-17.27Q4.23-15.94 4.91-15.04 5.59-14.13 6.73-13.41 7.87-12.69 9.2-11.86L9.2-11.86Q10.73-10.91 11.93-9.98 13.13-9.05 13.82-7.92 14.52-6.8 14.52-5.2L14.52-5.2Q14.52-3.31 13.66-2.07 12.8-0.83 11.38-0.21 9.97 0.41 8.25 0.41L8.25 0.41Q6.68 0.41 5.77 0.06 4.85-0.3 4.2-0.68L4.2-0.68Q3.55-1.09 3.19-1.09L3.19-1.09Q2.72-1.09 2.54 0.21L2.54 0.21 1.86 0.21Q1.92-0.41 1.94-1.26 1.95-2.1 1.97-3.46 1.98-4.82 1.98-6.89L1.98-6.89 2.66-6.89Q2.78-5.12 3.33-3.58 3.87-2.04 5.01-1.11 6.15-0.18 8.04-0.18L8.04-0.18Q9.49-0.18 10.69-1.11 11.89-2.04 11.89-4.11L11.89-4.11Q11.89-5.91 10.62-7.1 9.34-8.28 7.27-9.52L7.27-9.52Q5.88-10.38 4.67-11.27 3.46-12.15 2.74-13.32 2.01-14.49 2.01-16.15L2.01-16.15Q2.01-17.89 2.79-19.03 3.58-20.17 4.85-20.71 6.12-21.26 7.57-21.26ZM24.01-15.64L24.01-15.64Q26.61-15.64 28.08-14.06 29.54-12.48 29.54-9.14L29.54-9.14 19.1-9.14 19.07-9.7 26.7-9.7Q26.76-11.15 26.47-12.38 26.17-13.6 25.53-14.34 24.9-15.08 23.89-15.08L23.89-15.08Q22.53-15.08 21.48-13.72 20.43-12.36 20.23-9.4L20.23-9.4 20.31-9.29Q20.26-8.84 20.23-8.31 20.2-7.78 20.2-7.24L20.2-7.24Q20.2-5.23 20.85-3.79 21.5-2.34 22.55-1.58 23.6-0.83 24.72-0.83L24.72-0.83Q26.05-0.83 27.18-1.48 28.3-2.13 29.07-3.79L29.07-3.79 29.66-3.55Q29.33-2.57 28.59-1.66 27.86-0.74 26.73-0.16 25.61 0.41 24.13 0.41L24.13 0.41Q22 0.41 20.48-0.56 18.95-1.54 18.14-3.27 17.33-5 17.33-7.24L17.33-7.24Q17.33-9.85 18.16-11.72 18.98-13.6 20.49-14.62 22-15.64 24.01-15.64ZM36.49-23.18L36.49-23.18 36.49-2.75Q36.49-1.51 37.01-1.06 37.53-0.62 38.74-0.62L38.74-0.62 38.74 0Q38.23-0.03 37.21-0.07 36.19-0.12 35.16-0.12L35.16-0.12Q34.15-0.12 33.12-0.07 32.08-0.03 31.58 0L31.58 0 31.58-0.62Q32.79-0.62 33.31-1.06 33.83-1.51 33.83-2.75L33.83-2.75 33.83-19.63Q33.83-20.97 33.36-21.6 32.88-22.24 31.58-22.24L31.58-22.24 31.58-22.86Q32.53-22.77 33.41-22.77L33.41-22.77Q34.27-22.77 35.06-22.87 35.84-22.98 36.49-23.18ZM47.14-15.64L47.14-15.64Q49.74-15.64 51.2-14.06 52.67-12.48 52.67-9.14L52.67-9.14 42.23-9.14 42.2-9.7 49.83-9.7Q49.89-11.15 49.59-12.38 49.29-13.6 48.66-14.34 48.02-15.08 47.02-15.08L47.02-15.08Q45.66-15.08 44.61-13.72 43.56-12.36 43.35-9.4L43.35-9.4 43.44-9.29Q43.38-8.84 43.35-8.31 43.32-7.78 43.32-7.24L43.32-7.24Q43.32-5.23 43.97-3.79 44.62-2.34 45.67-1.58 46.72-0.83 47.85-0.83L47.85-0.83Q49.18-0.83 50.3-1.48 51.42-2.13 52.19-3.79L52.19-3.79 52.78-3.55Q52.46-2.57 51.72-1.66 50.98-0.74 49.86-0.16 48.73 0.41 47.25 0.41L47.25 0.41Q45.12 0.41 43.6-0.56 42.08-1.54 41.27-3.27 40.45-5 40.45-7.24L40.45-7.24Q40.45-9.85 41.28-11.72 42.11-13.6 43.62-14.62 45.12-15.64 47.14-15.64ZM62.31-15.64L62.31-15.64Q63.25-15.64 64.14-15.41 65.03-15.17 65.74-14.7L65.74-14.7Q66.42-14.25 66.77-13.68 67.13-13.1 67.13-12.42L67.13-12.42Q67.13-11.62 66.68-11.19 66.24-10.76 65.56-10.76L65.56-10.76Q64.91-10.76 64.42-11.15 63.93-11.53 63.93-12.24L63.93-12.24Q63.93-12.92 64.3-13.34 64.67-13.75 65.17-13.87L65.17-13.87Q64.88-14.4 64.12-14.76 63.37-15.11 62.51-15.11L62.51-15.11Q61.77-15.11 61.03-14.76 60.29-14.4 59.67-13.59 59.05-12.77 58.67-11.37 58.28-9.97 58.28-7.87L58.28-7.87Q58.28-5.26 58.88-3.73 59.47-2.19 60.43-1.52 61.39-0.86 62.54-0.86L62.54-0.86Q63.7-0.86 64.88-1.54 66.06-2.22 66.83-3.9L66.83-3.9 67.39-3.7Q67.1-2.75 66.42-1.79 65.74-0.83 64.64-0.21 63.55 0.41 61.95 0.41L61.95 0.41Q60.12 0.41 58.64-0.53 57.16-1.48 56.29-3.24 55.42-5 55.42-7.42L55.42-7.42Q55.42-9.85 56.29-11.7 57.16-13.54 58.73-14.59 60.29-15.64 62.31-15.64ZM74.04-20.14L74.04-20.14 74.04-15.2 78.42-15.2 78.42-14.61 74.04-14.61 74.04-3.16Q74.04-1.77 74.55-1.21 75.05-0.65 75.94-0.65L75.94-0.65Q76.82-0.65 77.47-1.38 78.13-2.1 78.6-3.81L78.6-3.81 79.19-3.67Q78.89-1.95 78.02-0.77 77.15 0.41 75.35 0.41L75.35 0.41Q74.34 0.41 73.69 0.16 73.04-0.09 72.54-0.56L72.54-0.56Q71.89-1.24 71.63-2.19 71.38-3.13 71.38-4.7L71.38-4.7 71.38-14.61 68.54-14.61 68.54-15.2 71.38-15.2 71.38-19.72Q72.12-19.75 72.8-19.84 73.48-19.93 74.04-20.14ZM83.12-22.62L83.12-22.62Q83.89-22.62 84.45-22.06 85.02-21.5 85.02-20.73L85.02-20.73Q85.02-19.96 84.45-19.4 83.89-18.84 83.12-18.84L83.12-18.84Q82.35-18.84 81.79-19.4 81.23-19.96 81.23-20.73L81.23-20.73Q81.23-21.5 81.79-22.06 82.35-22.62 83.12-22.62ZM84.66-15.55L84.66-15.55 84.66-2.75Q84.66-1.51 85.18-1.06 85.7-0.62 86.91-0.62L86.91-0.62 86.91 0Q86.41-0.03 85.39-0.07 84.36-0.12 83.33-0.12L83.33-0.12Q82.32-0.12 81.29-0.07 80.25-0.03 79.75 0L79.75 0 79.75-0.62Q80.96-0.62 81.48-1.06 82-1.51 82-2.75L82-2.75 82-12.01Q82-13.34 81.53-13.97 81.05-14.61 79.75-14.61L79.75-14.61 79.75-15.23Q80.7-15.14 81.59-15.14L81.59-15.14Q82.44-15.14 83.23-15.24 84.01-15.35 84.66-15.55ZM95.66-15.64L95.66-15.64Q97.55-15.64 99.06-14.81 100.57-13.99 101.47-12.21 102.37-10.44 102.37-7.6L102.37-7.6Q102.37-4.76 101.47-3 100.57-1.24 99.06-0.41 97.55 0.41 95.66 0.41L95.66 0.41Q93.8 0.41 92.28-0.41 90.75-1.24 89.85-3 88.95-4.76 88.95-7.6L88.95-7.6Q88.95-10.44 89.85-12.21 90.75-13.99 92.28-14.81 93.8-15.64 95.66-15.64ZM95.66-15.05L95.66-15.05Q93.98-15.05 92.9-13.31 91.82-11.56 91.82-7.6L91.82-7.6Q91.82-3.64 92.9-1.91 93.98-0.18 95.66-0.18L95.66-0.18Q97.35-0.18 98.43-1.91 99.51-3.64 99.51-7.6L99.51-7.6Q99.51-11.56 98.43-13.31 97.35-15.05 95.66-15.05ZM114.56-15.64L114.56-15.64Q115.68-15.64 116.43-15.35 117.19-15.05 117.69-14.52L117.69-14.52Q118.25-13.93 118.49-13.04 118.73-12.15 118.73-10.65L118.73-10.65 118.73-2.75Q118.73-1.51 119.24-1.06 119.76-0.62 120.97-0.62L120.97-0.62 120.97 0Q120.47-0.03 119.44-0.07 118.4-0.12 117.42-0.12L117.42-0.12Q116.45-0.12 115.52-0.07 114.59-0.03 114.11 0L114.11 0 114.11-0.62Q115.18-0.62 115.62-1.06 116.06-1.51 116.06-2.75L116.06-2.75 116.06-11.3Q116.06-12.21 115.92-12.98 115.77-13.75 115.25-14.22 114.73-14.7 113.67-14.7L113.67-14.7Q111.81-14.7 110.67-13.14 109.53-11.59 109.53-9.31L109.53-9.31 109.53-2.75Q109.53-1.51 109.97-1.06 110.42-0.62 111.48-0.62L111.48-0.62 111.48 0Q111.01-0.03 110.08-0.07 109.15-0.12 108.17-0.12L108.17-0.12Q107.19-0.12 106.16-0.07 105.12-0.03 104.62 0L104.62 0 104.62-0.62Q105.83-0.62 106.35-1.06 106.87-1.51 106.87-2.75L106.87-2.75 106.87-12.01Q106.87-13.34 106.39-13.97 105.92-14.61 104.62-14.61L104.62-14.61 104.62-15.23Q105.57-15.14 106.45-15.14L106.45-15.14Q107.31-15.14 108.1-15.24 108.88-15.35 109.53-15.55L109.53-15.55 109.53-12.06Q110.3-14.08 111.67-14.86 113.05-15.64 114.56-15.64Z" transform="translate(-1.8600000143051147, 23.18000030517578)"></path></g></g></g></g> <g data-gra="path-slogan" fill-rule="" class="tp-slogan" transform="matrix(0.9722300196155153,0,0,0.9722300196155153,96.19126408940403,29.7031905853256)" opacity="1"><!----> <!----> <g transform="scale(1, 1)"><g transform="scale(1)"><path d="M1.10-1.72L0.50-1.02C0.85-0.66 1.26-0.38 1.73-0.17C2.20 0.04 2.71 0.14 3.26 0.14C3.68 0.14 4.05 0.09 4.38-0.03C4.71-0.15 4.99-0.31 5.22-0.51C5.45-0.71 5.63-0.95 5.75-1.22C5.88-1.50 5.94-1.79 5.94-2.10C5.94-2.39 5.90-2.64 5.81-2.86C5.73-3.08 5.62-3.27 5.47-3.44C5.33-3.60 5.16-3.75 4.96-3.87C4.76-3.99 4.54-4.10 4.32-4.20L3.20-4.68C3.04-4.74 2.89-4.81 2.74-4.89C2.58-4.97 2.44-5.05 2.32-5.15C2.19-5.25 2.09-5.37 2.01-5.50C1.93-5.63 1.90-5.80 1.90-5.99C1.90-6.35 2.03-6.63 2.30-6.83C2.57-7.04 2.92-7.14 3.36-7.14C3.73-7.14 4.06-7.07 4.35-6.94C4.64-6.81 4.91-6.63 5.15-6.40L5.69-7.04C5.41-7.33 5.07-7.57 4.67-7.75C4.27-7.93 3.83-8.02 3.36-8.02C3-8.02 2.67-7.96 2.37-7.86C2.07-7.76 1.81-7.61 1.59-7.42C1.37-7.23 1.20-7.01 1.07-6.76C0.95-6.50 0.89-6.22 0.89-5.93C0.89-5.64 0.94-5.39 1.03-5.17C1.13-4.95 1.25-4.76 1.40-4.60C1.56-4.44 1.73-4.30 1.92-4.19C2.11-4.08 2.30-3.98 2.48-3.90L3.61-3.41C3.80-3.32 3.97-3.24 4.13-3.16C4.29-3.08 4.43-2.99 4.54-2.89C4.66-2.79 4.75-2.67 4.82-2.53C4.89-2.39 4.92-2.22 4.92-2.02C4.92-1.63 4.78-1.32 4.49-1.09C4.20-0.85 3.80-0.73 3.28-0.73C2.87-0.73 2.47-0.82 2.09-1.00C1.71-1.18 1.38-1.42 1.10-1.72ZM8.68-3.05L8.68 0L9.68 0L9.68-3.05L12.05-7.87L11.00-7.87L10.00-5.65C9.88-5.36 9.75-5.08 9.61-4.80C9.48-4.52 9.34-4.23 9.20-3.94L9.16-3.94C9.02-4.23 8.89-4.52 8.77-4.80C8.65-5.08 8.53-5.36 8.40-5.65L7.38-7.87L6.31-7.87ZM12.95-1.72L12.35-1.02C12.69-0.66 13.10-0.38 13.57-0.17C14.04 0.04 14.56 0.14 15.11 0.14C15.52 0.14 15.90 0.09 16.22-0.03C16.55-0.15 16.83-0.31 17.06-0.51C17.30-0.71 17.47-0.95 17.60-1.22C17.72-1.50 17.78-1.79 17.78-2.10C17.78-2.39 17.74-2.64 17.66-2.86C17.57-3.08 17.46-3.27 17.32-3.44C17.17-3.60 17.00-3.75 16.80-3.87C16.60-3.99 16.39-4.10 16.16-4.20L15.05-4.68C14.89-4.74 14.73-4.81 14.58-4.89C14.43-4.97 14.29-5.05 14.16-5.15C14.03-5.25 13.93-5.37 13.85-5.50C13.78-5.63 13.74-5.80 13.74-5.99C13.74-6.35 13.87-6.63 14.14-6.83C14.41-7.04 14.76-7.14 15.20-7.14C15.57-7.14 15.90-7.07 16.19-6.94C16.49-6.81 16.75-6.63 16.99-6.40L17.53-7.04C17.25-7.33 16.91-7.57 16.51-7.75C16.11-7.93 15.68-8.02 15.20-8.02C14.84-8.02 14.51-7.96 14.21-7.86C13.91-7.76 13.65-7.61 13.43-7.42C13.21-7.23 13.04-7.01 12.92-6.76C12.79-6.50 12.73-6.22 12.73-5.93C12.73-5.64 12.78-5.39 12.88-5.17C12.97-4.95 13.10-4.76 13.25-4.60C13.40-4.44 13.57-4.30 13.76-4.19C13.96-4.08 14.14-3.98 14.33-3.90L15.46-3.41C15.64-3.32 15.81-3.24 15.97-3.16C16.13-3.08 16.27-2.99 16.39-2.89C16.50-2.79 16.59-2.67 16.66-2.53C16.73-2.39 16.76-2.22 16.76-2.02C16.76-1.63 16.62-1.32 16.33-1.09C16.04-0.85 15.64-0.73 15.12-0.73C14.71-0.73 14.32-0.82 13.94-1.00C13.56-1.18 13.23-1.42 12.95-1.72ZM20.72-7.03L20.72 0L21.73 0L21.73-7.03L24.11-7.03L24.11-7.87L18.35-7.87L18.35-7.03ZM25.52-7.87L25.52 0L30.18 0L30.18-0.85L26.52-0.85L26.52-3.71L29.51-3.71L29.51-4.56L26.52-4.56L26.52-7.03L30.06-7.03L30.06-7.87ZM31.85-7.87L31.85 0L32.77 0L32.77-4.33C32.77-4.68 32.76-5.07 32.72-5.50C32.69-5.92 32.66-6.31 32.64-6.66L32.69-6.66L33.31-4.91L34.84-0.79L35.40-0.79L36.91-4.91L37.55-6.66L37.60-6.66C37.56-6.31 37.53-5.92 37.51-5.50C37.48-5.07 37.46-4.68 37.46-4.33L37.46 0L38.41 0L38.41-7.87L37.24-7.87L35.72-3.65L35.17-2.04L35.12-2.04L34.55-3.65L33.02-7.87Z" transform="translate(-0.504, 8.016)"></path></g></g></g></g></g></g><defs v-gra="od"></defs></svg>