<?xml version="1.0" encoding="UTF-8"?>
<!DOCTYPE svg PUBLIC "-//W3C//DTD SVG 1.1//EN" "http://www.w3.org/Graphics/SVG/1.1/DTD/svg11.dtd">
<svg xmlns="http://www.w3.org/2000/svg" version="1.1" width="133px" height="142px" style="shape-rendering:geometricPrecision; text-rendering:geometricPrecision; image-rendering:optimizeQuality; fill-rule:evenodd; clip-rule:evenodd" xmlns:xlink="http://www.w3.org/1999/xlink">
<g><path style="opacity:1" fill="#df2b3c" d="M 117.5,9.5 C 116.5,9.5 115.5,9.5 114.5,9.5C 114.632,12.5701 114.299,15.5701 113.5,18.5C 112.29,18.0679 111.29,17.4013 110.5,16.5C 109.721,14.0728 108.554,14.0728 107,16.5C 106.517,15.552 106.351,14.552 106.5,13.5C 105.432,12.5655 104.099,12.2322 102.5,12.5C 99.1966,11.8349 95.8632,11.1682 92.5,10.5C 91.6143,11.325 91.281,12.325 91.5,13.5C 90.8333,12.8333 90.1667,12.1667 89.5,11.5C 87.1147,8.88225 84.948,9.21559 83,12.5C 82.8078,10.4233 82.3078,8.4233 81.5,6.5C 79.3455,7.90514 77.1788,9.23848 75,10.5C 73.1159,8.42366 70.9492,8.09033 68.5,9.5C 69.376,10.2508 70.376,10.7508 71.5,11C 68.95,12.3704 66.2833,13.5371 63.5,14.5C 62.1667,13.1667 62.1667,11.8333 63.5,10.5C 65.4054,12.0581 66.2387,11.7248 66,9.5C 63.7655,8.01982 61.9321,8.35315 60.5,10.5C 59.8333,10.8333 59.1667,11.1667 58.5,11.5C 56.9461,5.5177 54.9461,5.18436 52.5,10.5C 50.1432,10.6633 47.8098,10.4966 45.5,10C 47.3588,9.39919 47.6921,8.56586 46.5,7.5C 43.9407,7.19845 41.6074,7.53178 39.5,8.5C 39.1667,8.5 38.8333,8.5 38.5,8.5C 37.8333,8.5 37.1667,8.5 36.5,8.5C 35.8333,9.16667 35.1667,9.83333 34.5,10.5C 34.1583,9.66175 33.4916,9.32842 32.5,9.5C 29.9902,9.92668 27.6568,10.5933 25.5,11.5C 23.0274,11.0882 21.6941,12.0882 21.5,14.5C 21.3573,16.2624 21.6906,17.9291 22.5,19.5C 21.3112,20.4287 19.9778,20.762 18.5,20.5C 16.5818,15.6951 16.2485,10.6951 17.5,5.5C 50.9099,-0.0978306 84.2433,0.235503 117.5,6.5C 117.5,7.5 117.5,8.5 117.5,9.5 Z"/></g>
<g><path style="opacity:1" fill="#f8bec0" d="M 46.5,7.5 C 45.6091,8.26133 44.9424,9.26133 44.5,10.5C 45.2234,12.7822 45.5567,15.1155 45.5,17.5C 44.5,17.5 43.5,17.5 42.5,17.5C 42.5,14.8333 42.5,12.1667 42.5,9.5C 41.209,9.73731 40.209,9.40397 39.5,8.5C 41.6074,7.53178 43.9407,7.19845 46.5,7.5 Z"/></g>
<g><path style="opacity:1" fill="#f8bfc1" d="M 58.5,11.5 C 59.2178,13.1368 59.3845,14.8034 59,16.5C 56.8404,13.9194 54.6737,13.9194 52.5,16.5C 51.7691,14.5988 51.7691,12.5988 52.5,10.5C 54.9461,5.18436 56.9461,5.5177 58.5,11.5 Z"/></g>
<g><path style="opacity:1" fill="#f6a9ab" d="M 89.5,11.5 C 88.6649,12.9432 87.3316,13.9432 85.5,14.5C 86.7287,15.2811 88.062,15.7811 89.5,16C 87.1909,18.051 85.0243,17.8843 83,15.5C 80.0844,17.0135 77.4177,16.6801 75,14.5C 72.3847,17.0701 69.718,17.0701 67,14.5C 62.4912,17.4882 60.3245,16.1549 60.5,10.5C 61.9321,8.35315 63.7655,8.01982 66,9.5C 66.2387,11.7248 65.4054,12.0581 63.5,10.5C 62.1667,11.8333 62.1667,13.1667 63.5,14.5C 66.2833,13.5371 68.95,12.3704 71.5,11C 70.376,10.7508 69.376,10.2508 68.5,9.5C 70.9492,8.09033 73.1159,8.42366 75,10.5C 77.1788,9.23848 79.3455,7.90514 81.5,6.5C 82.3078,8.4233 82.8078,10.4233 83,12.5C 84.948,9.21559 87.1147,8.88225 89.5,11.5 Z"/></g>
<g><path style="opacity:1" fill="#ec4e4b" d="M 46.5,7.5 C 47.6921,8.56586 47.3588,9.39919 45.5,10C 47.8098,10.4966 50.1432,10.6633 52.5,10.5C 51.7691,12.5988 51.7691,14.5988 52.5,16.5C 54.6737,13.9194 56.8404,13.9194 59,16.5C 59.3845,14.8034 59.2178,13.1368 58.5,11.5C 59.1667,11.1667 59.8333,10.8333 60.5,10.5C 60.3245,16.1549 62.4912,17.4882 67,14.5C 69.718,17.0701 72.3847,17.0701 75,14.5C 77.4177,16.6801 80.0844,17.0135 83,15.5C 85.0243,17.8843 87.1909,18.051 89.5,16C 88.062,15.7811 86.7287,15.2811 85.5,14.5C 87.3316,13.9432 88.6649,12.9432 89.5,11.5C 90.1667,12.1667 90.8333,12.8333 91.5,13.5C 91.238,14.9778 91.5713,16.3112 92.5,17.5C 94.6187,10.8354 95.952,11.1688 96.5,18.5C 99.0599,11.5592 100.56,11.8925 101,19.5C 101.977,17.26 102.477,14.9267 102.5,12.5C 104.099,12.2322 105.432,12.5655 106.5,13.5C 105.1,16.1778 103.766,19.0111 102.5,22C 103.5,22.6667 104.5,22.6667 105.5,22C 106.715,19.6246 108.381,17.7912 110.5,16.5C 111.29,17.4013 112.29,18.0679 113.5,18.5C 113.326,21.8738 112.826,25.2072 112,28.5C 84.2361,19.189 56.0695,18.0224 27.5,25C 24.7919,26.0695 22.1253,27.2361 19.5,28.5C 18.52,25.9135 18.1866,23.2469 18.5,20.5C 19.9778,20.762 21.3112,20.4287 22.5,19.5C 21.6906,17.9291 21.3573,16.2624 21.5,14.5C 22.9238,16.5145 23.5905,18.8478 23.5,21.5C 26.6405,22.0918 28.9739,21.0918 30.5,18.5C 29.0629,16.4229 28.3962,14.0895 28.5,11.5C 27.5,11.5 26.5,11.5 25.5,11.5C 27.6568,10.5933 29.9902,9.92668 32.5,9.5C 33.5732,12.7209 33.5732,15.8876 32.5,19C 33.4491,19.6172 34.2825,19.4506 35,18.5C 35.7218,15.7395 35.5552,13.0728 34.5,10.5C 35.1667,9.83333 35.8333,9.16667 36.5,8.5C 38.4935,21.8337 39.1602,21.8337 38.5,8.5C 38.8333,8.5 39.1667,8.5 39.5,8.5C 40.209,9.40397 41.209,9.73731 42.5,9.5C 42.5,12.1667 42.5,14.8333 42.5,17.5C 43.5,17.5 44.5,17.5 45.5,17.5C 45.5567,15.1155 45.2234,12.7822 44.5,10.5C 44.9424,9.26133 45.6091,8.26133 46.5,7.5 Z M 34.5,25.5 C 31.6702,26.7345 28.6702,27.7345 25.5,28.5C 27.9557,26.1324 30.9557,25.1324 34.5,25.5 Z M 97.5,25.5 C 99.8984,25.2594 101.898,25.9261 103.5,27.5C 101.214,27.405 99.2143,26.7384 97.5,25.5 Z"/></g>
<g><path style="opacity:1" fill="#f9c1c2" d="M 36.5,8.5 C 37.1667,8.5 37.8333,8.5 38.5,8.5C 39.1602,21.8337 38.4935,21.8337 36.5,8.5 Z"/></g>
<g><path style="opacity:0.196" fill="#c52e2e" d="M 17.5,5.5 C 16.2485,10.6951 16.5818,15.6951 18.5,20.5C 18.1866,23.2469 18.52,25.9135 19.5,28.5C 22.1253,27.2361 24.7919,26.0695 27.5,25C 56.0695,18.0224 84.2361,19.189 112,28.5C 112.826,25.2072 113.326,21.8738 113.5,18.5C 114.299,15.5701 114.632,12.5701 114.5,9.5C 115.5,9.5 116.5,9.5 117.5,9.5C 116.314,10.9613 116.314,12.2946 117.5,13.5C 115.285,18.868 114.118,24.5346 114,30.5C 111.444,31.2191 110.277,32.8858 110.5,35.5C 111.873,35.3433 113.207,35.51 114.5,36C 113.944,36.3826 113.611,36.8826 113.5,37.5C 112.391,37.4431 111.391,37.1098 110.5,36.5C 109.357,36.0919 108.357,35.4252 107.5,34.5C 108.91,33.4305 109.91,32.0972 110.5,30.5C 110.167,29.1667 109.833,29.1667 109.5,30.5C 108.833,30.5 108.5,30.1667 108.5,29.5C 107.791,28.596 106.791,28.2627 105.5,28.5C 105.158,27.6618 104.492,27.3284 103.5,27.5C 101.898,25.9261 99.8984,25.2594 97.5,25.5C 96.5,25.5 95.5,25.5 94.5,25.5C 93.0813,24.5489 91.4147,24.2155 89.5,24.5C 87.7354,23.5386 85.7354,23.2053 83.5,23.5C 83.1667,23.5 82.8333,23.5 82.5,23.5C 78.03,22.5139 73.3633,22.1805 68.5,22.5C 67.1667,22.5 65.8333,22.5 64.5,22.5C 58.9738,22.1786 53.6405,22.5119 48.5,23.5C 45.9407,23.1984 43.6074,23.5318 41.5,24.5C 39.5853,24.2155 37.9187,24.5489 36.5,25.5C 35.8333,25.5 35.1667,25.5 34.5,25.5C 30.9557,25.1324 27.9557,26.1324 25.5,28.5C 24.209,28.2627 23.209,28.596 22.5,29.5C 20.5759,29.7107 20.2426,30.3774 21.5,31.5C 21.8333,32.1667 22.1667,32.8333 22.5,33.5C 20.5742,32.7577 18.7409,31.7577 17,30.5C 15.8399,25.5658 15.3399,20.5658 15.5,15.5C 11.3196,15.1885 7.31956,15.8552 3.5,17.5C 5.26283,21.3638 7.26283,25.0304 9.5,28.5C 8.16969,31.8284 6.83636,35.1617 5.5,38.5C 6.16667,38.8333 6.83333,39.1667 7.5,39.5C 11.4142,38.0827 15.4142,37.0827 19.5,36.5C 14.6344,39.3423 9.30107,41.009 3.5,41.5C 4.19293,37.2556 5.19293,33.0889 6.5,29C 5.28024,25.0517 3.61357,21.2184 1.5,17.5C 1.70931,16.914 2.04265,16.414 2.5,16C 6.11411,15.0551 9.78078,14.3884 13.5,14C 14.1197,11.5272 14.7864,9.02724 15.5,6.5C 16.1835,6.13727 16.8501,5.80393 17.5,5.5 Z M 34.5,25.5 C 31.6702,26.7345 28.6702,27.7345 25.5,28.5C 27.9557,26.1324 30.9557,25.1324 34.5,25.5 Z M 97.5,25.5 C 99.8984,25.2594 101.898,25.9261 103.5,27.5C 101.214,27.405 99.2143,26.7384 97.5,25.5 Z M 22.5,29.5 C 22.1667,30.1667 21.8333,30.8333 21.5,31.5C 20.2426,30.3774 20.5759,29.7107 22.5,29.5 Z"/></g>
<g><path style="opacity:1" fill="#f9c6c5" d="M 106.5,13.5 C 106.351,14.552 106.517,15.552 107,16.5C 108.554,14.0728 109.721,14.0728 110.5,16.5C 108.381,17.7912 106.715,19.6246 105.5,22C 104.5,22.6667 103.5,22.6667 102.5,22C 103.766,19.0111 105.1,16.1778 106.5,13.5 Z"/></g>
<g><path style="opacity:1" fill="#fad1d1" d="M 32.5,9.5 C 33.4916,9.32842 34.1583,9.66175 34.5,10.5C 35.5552,13.0728 35.7218,15.7395 35,18.5C 34.2825,19.4506 33.4491,19.6172 32.5,19C 33.5732,15.8876 33.5732,12.7209 32.5,9.5 Z"/></g>
<g><path style="opacity:1" fill="#f8c3c4" d="M 102.5,12.5 C 102.477,14.9267 101.977,17.26 101,19.5C 100.56,11.8925 99.0599,11.5592 96.5,18.5C 95.952,11.1688 94.6187,10.8354 92.5,17.5C 91.5713,16.3112 91.238,14.9778 91.5,13.5C 91.281,12.325 91.6143,11.325 92.5,10.5C 95.8632,11.1682 99.1966,11.8349 102.5,12.5 Z"/></g>
<g><path style="opacity:1" fill="#fabbb8" d="M 25.5,11.5 C 26.5,11.5 27.5,11.5 28.5,11.5C 28.3962,14.0895 29.0629,16.4229 30.5,18.5C 28.9739,21.0918 26.6405,22.0918 23.5,21.5C 23.5905,18.8478 22.9238,16.5145 21.5,14.5C 21.6941,12.0882 23.0274,11.0882 25.5,11.5 Z"/></g>
<g><path style="opacity:0.722" fill="#cdd0d4" d="M 64.5,22.5 C 65.8333,22.5 67.1667,22.5 68.5,22.5C 72.97,23.4861 77.6367,23.8195 82.5,23.5C 82.8333,23.5 83.1667,23.5 83.5,23.5C 85.2646,24.4614 87.2646,24.7947 89.5,24.5C 90.9187,25.4511 92.5853,25.7845 94.5,25.5C 95.5,25.5 96.5,25.5 97.5,25.5C 99.2143,26.7384 101.214,27.405 103.5,27.5C 103.842,28.3382 104.508,28.6716 105.5,28.5C 106.209,29.404 107.209,29.7373 108.5,29.5C 108.5,30.1667 108.833,30.5 109.5,30.5C 109.833,30.5 110.167,30.5 110.5,30.5C 109.91,32.0972 108.91,33.4305 107.5,34.5C 108.357,35.4252 109.357,36.0919 110.5,36.5C 110.155,45.1717 109.655,53.8384 109,62.5C 108.431,66.7946 107.264,70.7946 105.5,74.5C 104.038,73.5291 102.705,73.8624 101.5,75.5C 105.216,61.4331 106.883,47.0998 106.5,32.5C 83.8054,26.1138 60.8054,24.9472 37.5,29C 33.7203,29.8545 30.0536,31.0211 26.5,32.5C 25.1826,38.9883 25.1826,45.3217 26.5,51.5C 26.8404,57.208 27.507,62.8747 28.5,68.5C 26.4862,68.6085 24.8195,67.9418 23.5,66.5C 21.7899,56.5985 21.1232,46.5985 21.5,36.5C 23.3818,35.779 23.7152,34.779 22.5,33.5C 22.1667,32.8333 21.8333,32.1667 21.5,31.5C 21.8333,30.8333 22.1667,30.1667 22.5,29.5C 23.791,29.7373 24.791,29.404 25.5,28.5C 28.6702,27.7345 31.6702,26.7345 34.5,25.5C 35.1667,25.5 35.8333,25.5 36.5,25.5C 38.4147,25.7845 40.0813,25.4511 41.5,24.5C 44.0593,24.8016 46.3926,24.4682 48.5,23.5C 54.0262,23.8214 59.3595,23.4881 64.5,22.5 Z"/></g>
<g><path style="opacity:1" fill="#d5dce1" d="M 80.5,30.5 C 81.347,31.9663 82.6803,32.7996 84.5,33C 82.9419,33.21 81.6085,33.71 80.5,34.5C 77.1403,40.559 73.8069,46.559 70.5,52.5C 70.4894,54.0174 69.8228,55.1841 68.5,56C 71.2376,59.9788 73.571,64.1454 75.5,68.5C 74.1667,68.5 73.5,69.1667 73.5,70.5C 71.347,68.2063 69.6803,65.5396 68.5,62.5C 68.6199,60.2655 68.2865,58.0989 67.5,56C 67.9504,54.7147 68.6171,53.548 69.5,52.5C 69.1667,52.1667 68.8333,51.8333 68.5,51.5C 66.2406,51.7845 64.5739,52.7845 63.5,54.5C 59.1101,48.1004 55.1101,41.4337 51.5,34.5C 50.3915,33.71 49.0581,33.21 47.5,33C 48.3805,32.2917 49.0472,31.4584 49.5,30.5C 59.7796,29.269 70.1129,29.269 80.5,30.5 Z"/></g>
<g><path style="opacity:1" fill="#c8cfd5" d="M 49.5,30.5 C 49.0472,31.4584 48.3805,32.2917 47.5,33C 49.0581,33.21 50.3915,33.71 51.5,34.5C 45.2775,34.2114 39.2775,35.2114 33.5,37.5C 32.0788,46.7087 32.4122,55.7087 34.5,64.5C 34.5,66.1667 34.5,67.8333 34.5,69.5C 33.5309,67.337 32.6976,65.0037 32,62.5C 31.5045,64.4727 31.3379,66.4727 31.5,68.5C 30.2568,64.2144 29.2568,59.8811 28.5,55.5C 28.1697,48.4684 28.503,41.4684 29.5,34.5C 35.8847,31.7564 42.5513,30.4231 49.5,30.5 Z"/></g>
<g><path style="opacity:1" fill="#ccd3d8" d="M 80.5,30.5 C 88.232,31.5108 95.8987,32.8442 103.5,34.5C 103.528,44.1921 103.028,53.8588 102,63.5C 100.596,69.0961 98.7623,74.4294 96.5,79.5C 96.2739,76.7508 96.6072,74.0841 97.5,71.5C 90.3447,70.8333 83.3447,70.1666 76.5,69.5C 83.175,69.6663 89.8417,69.4996 96.5,69C 97.4231,66.9592 97.7564,64.7925 97.5,62.5C 98.3019,61.0484 98.8019,59.3817 99,57.5C 99.4996,50.8417 99.6663,44.175 99.5,37.5C 93.2311,36.113 86.8978,35.113 80.5,34.5C 81.6085,33.71 82.9419,33.21 84.5,33C 82.6803,32.7996 81.347,31.9663 80.5,30.5 Z"/></g>
<g><path style="opacity:1" fill="#3f87be" d="M 101.5,75.5 C 99.3434,81.1465 96.6768,86.4798 93.5,91.5C 93.5912,89.3023 92.9245,88.9689 91.5,90.5C 92.1667,88.8333 92.8333,87.1667 93.5,85.5C 95.0075,83.8185 96.0075,81.8185 96.5,79.5C 98.7623,74.4294 100.596,69.0961 102,63.5C 103.028,53.8588 103.528,44.1921 103.5,34.5C 95.8987,32.8442 88.232,31.5108 80.5,30.5C 70.1129,29.269 59.7796,29.269 49.5,30.5C 42.5513,30.4231 35.8847,31.7564 29.5,34.5C 28.503,41.4684 28.1697,48.4684 28.5,55.5C 27.6862,53.369 27.1862,51.0356 27,48.5C 26.5172,49.448 26.3505,50.448 26.5,51.5C 25.1826,45.3217 25.1826,38.9883 26.5,32.5C 30.0536,31.0211 33.7203,29.8545 37.5,29C 60.8054,24.9472 83.8054,26.1138 106.5,32.5C 106.883,47.0998 105.216,61.4331 101.5,75.5 Z"/></g>
<g><path style="opacity:1" fill="#e74041" d="M 22.5,33.5 C 23.7152,34.779 23.3818,35.779 21.5,36.5C 20.8333,36.5 20.1667,36.5 19.5,36.5C 15.4142,37.0827 11.4142,38.0827 7.5,39.5C 6.83333,39.1667 6.16667,38.8333 5.5,38.5C 6.83636,35.1617 8.16969,31.8284 9.5,28.5C 7.26283,25.0304 5.26283,21.3638 3.5,17.5C 7.31956,15.8552 11.3196,15.1885 15.5,15.5C 15.3399,20.5658 15.8399,25.5658 17,30.5C 18.7409,31.7577 20.5742,32.7577 22.5,33.5 Z"/></g>
<g><path style="opacity:1" fill="#498fc1" d="M 55.5,33.5 C 62.8635,33.1694 70.1968,33.5027 77.5,34.5C 75.6107,37.2255 73.2774,39.3922 70.5,41C 70.9574,41.414 71.2907,41.914 71.5,42.5C 70.2307,46.0536 68.2307,49.0536 65.5,51.5C 61.3029,45.9722 57.9696,39.9722 55.5,33.5 Z"/></g>
<g><path style="opacity:1" fill="#df3b3c" d="M 117.5,13.5 C 121.435,14.4353 125.435,15.2687 129.5,16C 129.957,16.414 130.291,16.914 130.5,17.5C 128.268,21.2267 126.268,25.0601 124.5,29C 125.94,33.152 127.273,37.3187 128.5,41.5C 123.126,41.1652 118.126,39.8318 113.5,37.5C 113.611,36.8826 113.944,36.3826 114.5,36C 113.207,35.51 111.873,35.3433 110.5,35.5C 110.277,32.8858 111.444,31.2191 114,30.5C 114.118,24.5346 115.285,18.868 117.5,13.5 Z"/></g>
<g><path style="opacity:1" fill="#e89d35" d="M 63.5,38.5 C 67.6772,37.8416 69.1772,39.5082 68,43.5C 66.6667,46.1667 65.3333,46.1667 64,43.5C 63.5065,41.8659 63.3398,40.1992 63.5,38.5 Z"/></g>
<g><path style="opacity:1" fill="#2e77b4" d="M 51.5,34.5 C 55.1101,41.4337 59.1101,48.1004 63.5,54.5C 62.6099,57.9484 60.9432,60.9484 58.5,63.5C 54.1667,62.1667 49.8333,60.8333 45.5,59.5C 41.8789,60.3725 38.2122,61.0392 34.5,61.5C 34.5,62.5 34.5,63.5 34.5,64.5C 32.4122,55.7087 32.0788,46.7087 33.5,37.5C 39.2775,35.2114 45.2775,34.2114 51.5,34.5 Z"/></g>
<g><path style="opacity:1" fill="#267ebe" d="M 80.5,34.5 C 86.8978,35.113 93.2311,36.113 99.5,37.5C 99.6663,44.175 99.4996,50.8417 99,57.5C 98.8019,59.3817 98.3019,61.0484 97.5,62.5C 97.8204,59.1016 97.487,55.7683 96.5,52.5C 95.8182,53.2427 95.1515,53.9094 94.5,54.5C 93.36,51.9752 92.6933,49.3085 92.5,46.5C 90.088,46.6695 87.9214,46.0028 86,44.5C 84.1208,46.0128 81.9541,46.6795 79.5,46.5C 79.281,47.675 79.6143,48.675 80.5,49.5C 81.451,48.6744 82.451,48.5078 83.5,49C 82.0001,50.1145 80.3334,50.9479 78.5,51.5C 77.6143,52.325 77.281,53.325 77.5,54.5C 75.5441,52.8516 73.2108,52.1849 70.5,52.5C 73.8069,46.559 77.1403,40.559 80.5,34.5 Z"/></g>
<g><path style="opacity:1" fill="#d9cebc" d="M 51.5,47.5 C 52.8333,47.5 54.1667,47.5 55.5,47.5C 55.4828,49.5648 55.1495,51.5648 54.5,53.5C 52.9382,53.2671 51.6049,52.6005 50.5,51.5C 50.8333,50.1667 51.1667,48.8333 51.5,47.5 Z"/></g>
<g><path style="opacity:1" fill="#484a4c" d="M 51.5,47.5 C 51.1667,48.8333 50.8333,50.1667 50.5,51.5C 49.1667,51.5 48.5,52.1667 48.5,53.5C 46.7376,54.2623 45.7376,55.5956 45.5,57.5C 42.9556,57.8957 40.7889,57.229 39,55.5C 38.2998,52.1691 37.1331,49.1691 35.5,46.5C 40.9614,44.9476 46.2948,45.281 51.5,47.5 Z"/></g>
<g><path style="opacity:1" fill="#89abc9" d="M 94.5,54.5 C 92.744,55.5521 92.0773,57.2188 92.5,59.5C 90.088,59.3305 87.9214,59.9972 86,61.5C 84.1208,59.9872 81.9541,59.3205 79.5,59.5C 79.8799,57.302 79.2132,55.6354 77.5,54.5C 77.281,53.325 77.6143,52.325 78.5,51.5C 80.3334,50.9479 82.0001,50.1145 83.5,49C 82.451,48.5078 81.451,48.6744 80.5,49.5C 79.6143,48.675 79.281,47.675 79.5,46.5C 81.9541,46.6795 84.1208,46.0128 86,44.5C 87.9214,46.0028 90.088,46.6695 92.5,46.5C 92.6933,49.3085 93.36,51.9752 94.5,54.5 Z"/></g>
<g><path style="opacity:1" fill="#a24756" d="M 50.5,51.5 C 51.6049,52.6005 52.9382,53.2671 54.5,53.5C 55.552,53.3505 56.552,53.5172 57.5,54C 56.354,54.6449 55.354,55.4783 54.5,56.5C 53.5832,55.8728 52.5832,55.5394 51.5,55.5C 51.1788,53.9519 50.1788,53.2852 48.5,53.5C 48.5,52.1667 49.1667,51.5 50.5,51.5 Z"/></g>
<g><path style="opacity:1" fill="#d0bda1" d="M 48.5,53.5 C 50.1788,53.2852 51.1788,53.9519 51.5,55.5C 50.9356,59.4349 48.9356,60.7682 45.5,59.5C 45.5,58.8333 45.5,58.1667 45.5,57.5C 45.7376,55.5956 46.7376,54.2623 48.5,53.5 Z"/></g>
<g><path style="opacity:1" fill="#2763ab" d="M 45.5,59.5 C 49.8333,60.8333 54.1667,62.1667 58.5,63.5C 57.5592,65.0495 56.8925,66.7162 56.5,68.5C 49.2537,69.464 41.9204,69.7973 34.5,69.5C 34.5,67.8333 34.5,66.1667 34.5,64.5C 34.5,63.5 34.5,62.5 34.5,61.5C 38.2122,61.0392 41.8789,60.3725 45.5,59.5 Z"/></g>
<g><path style="opacity:1" fill="#2865ac" d="M 70.5,52.5 C 73.2108,52.1849 75.5441,52.8516 77.5,54.5C 79.2132,55.6354 79.8799,57.302 79.5,59.5C 81.9541,59.3205 84.1208,59.9872 86,61.5C 87.9214,59.9972 90.088,59.3305 92.5,59.5C 92.0773,57.2188 92.744,55.5521 94.5,54.5C 95.1515,53.9094 95.8182,53.2427 96.5,52.5C 97.487,55.7683 97.8204,59.1016 97.5,62.5C 97.7564,64.7925 97.4231,66.9592 96.5,69C 89.8417,69.4996 83.175,69.6663 76.5,69.5C 75.8333,69.5 75.5,69.1667 75.5,68.5C 73.571,64.1454 71.2376,59.9788 68.5,56C 69.8228,55.1841 70.4894,54.0174 70.5,52.5 Z"/></g>
<g><path style="opacity:1" fill="#f5f3f4" d="M 68.5,62.5 C 66.5294,60.0082 64.6961,60.3416 63,63.5C 59.9703,68.6737 56.8036,73.6737 53.5,78.5C 47.7711,78.2123 42.1045,78.5456 36.5,79.5C 35.3219,76.6092 34.6553,73.6092 34.5,70.5C 42.2428,71.1299 49.5762,70.4633 56.5,68.5C 56.8925,66.7162 57.5592,65.0495 58.5,63.5C 60.9432,60.9484 62.6099,57.9484 63.5,54.5C 64.5739,52.7845 66.2406,51.7845 68.5,51.5C 68.8333,51.8333 69.1667,52.1667 69.5,52.5C 68.6171,53.548 67.9504,54.7147 67.5,56C 68.2865,58.0989 68.6199,60.2655 68.5,62.5 Z"/></g>
<g><path style="opacity:1" fill="#f5f5f5" d="M 75.5,68.5 C 75.5,69.1667 75.8333,69.5 76.5,69.5C 83.3447,70.1666 90.3447,70.8333 97.5,71.5C 96.6072,74.0841 96.2739,76.7508 96.5,79.5C 96.0075,81.8185 95.0075,83.8185 93.5,85.5C 93.5,83.1667 93.5,80.8333 93.5,78.5C 88.5,78.5 83.5,78.5 78.5,78.5C 76.336,76.178 74.6693,73.5113 73.5,70.5C 73.5,69.1667 74.1667,68.5 75.5,68.5 Z"/></g>
<g><path style="opacity:1" fill="#e6414a" d="M 68.5,62.5 C 69.6803,65.5396 71.347,68.2063 73.5,70.5C 74.6693,73.5113 76.336,76.178 78.5,78.5C 78.5,78.8333 78.5,79.1667 78.5,79.5C 76.5648,78.8505 74.5648,78.5172 72.5,78.5C 72.5,79.8333 72.5,81.1667 72.5,82.5C 73.8333,82.5 75.1667,82.5 76.5,82.5C 76.4606,83.5832 76.1272,84.5832 75.5,85.5C 72.7102,87.9215 69.8769,90.2548 67,92.5C 66.0514,88.6221 64.8847,88.6221 63.5,92.5C 62.2807,91.7366 61.2807,90.7366 60.5,89.5C 59.8076,90.0253 59.3076,90.6919 59,91.5C 58.5065,89.8659 58.3398,88.1992 58.5,86.5C 56.0835,86.0391 54.2502,84.7058 53,82.5C 51.9701,82.8361 51.4701,83.5028 51.5,84.5C 50.596,85.209 50.2627,86.209 50.5,87.5C 48.2646,87.2053 46.2646,87.5386 44.5,88.5C 42.0568,85.9484 40.3901,82.9484 39.5,79.5C 44.3633,79.8195 49.03,79.4861 53.5,78.5C 56.8036,73.6737 59.9703,68.6737 63,63.5C 64.6961,60.3416 66.5294,60.0082 68.5,62.5 Z"/></g>
<g><path style="opacity:0.965" fill="#1b81c3" d="M 29.5,86.5 C 29.3284,87.4916 29.6618,88.1583 30.5,88.5C 30.5,89.1667 30.8333,89.5 31.5,89.5C 31.5,90.1667 31.8333,90.5 32.5,90.5C 32.5569,91.609 32.8902,92.609 33.5,93.5C 33.2627,94.791 33.596,95.791 34.5,96.5C 33.4341,97.6921 32.6008,97.3588 32,95.5C 30.7302,101.695 30.5635,107.862 31.5,114C 31.1373,116.192 30.1373,118.026 28.5,119.5C 19.6301,112.427 14.9634,103.094 14.5,91.5C 15.0258,88.157 16.0258,84.9903 17.5,82C 19.5,81.3333 21.5,81.3333 23.5,82C 25.4008,83.639 27.4008,85.139 29.5,86.5 Z"/></g>
<g><path style="opacity:0.949" fill="#1d82c4" d="M 102.5,119.5 C 101.829,113.32 102.829,107.486 105.5,102C 104.747,100.513 103.914,100.346 103,101.5C 103.102,97.0442 102.268,93.0442 100.5,89.5C 100.5,89.1667 100.5,88.8333 100.5,88.5C 101.167,88.5 101.5,88.1667 101.5,87.5C 101.5,87.1667 101.5,86.8333 101.5,86.5C 102.167,86.5 102.5,86.1667 102.5,85.5C 104.449,84.8161 106.115,83.6494 107.5,82C 110.347,81.0561 112.847,81.5561 115,83.5C 117.737,97.1891 114.237,109.022 104.5,119C 103.906,119.464 103.239,119.631 102.5,119.5 Z"/></g>
<g><path style="opacity:0.852" fill="#1578bd" d="M 100.5,89.5 C 102.268,93.0442 103.102,97.0442 103,101.5C 103.914,100.346 104.747,100.513 105.5,102C 102.829,107.486 101.829,113.32 102.5,119.5C 99.4777,124.195 95.1444,127.195 89.5,128.5C 88.8106,127.226 87.9772,127.226 87,128.5C 87.0643,126.044 86.8977,123.711 86.5,121.5C 86.5,121.167 86.5,120.833 86.5,120.5C 87.1667,120.5 87.5,120.167 87.5,119.5C 86.3517,115.814 86.3517,112.147 87.5,108.5C 87.0431,107.702 86.3764,107.369 85.5,107.5C 88.0698,105.386 90.4032,103.053 92.5,100.5C 93.1667,100.5 93.5,100.167 93.5,99.5C 93.8333,98.8333 94.1667,98.1667 94.5,97.5C 95.1667,97.5 95.5,97.1667 95.5,96.5C 96.8333,96.5 97.5,95.8333 97.5,94.5C 97.7497,92.326 98.7497,90.6594 100.5,89.5 Z"/></g>
<g><path style="opacity:1" fill="#e4dbdd" d="M 34.5,69.5 C 41.9204,69.7973 49.2537,69.464 56.5,68.5C 49.5762,70.4633 42.2428,71.1299 34.5,70.5C 34.6553,73.6092 35.3219,76.6092 36.5,79.5C 42.1045,78.5456 47.7711,78.2123 53.5,78.5C 49.03,79.4861 44.3633,79.8195 39.5,79.5C 40.3901,82.9484 42.0568,85.9484 44.5,88.5C 46.4482,91.6215 48.6148,94.6215 51,97.5C 54.0228,99.6976 56.8562,102.031 59.5,104.5C 58.8501,104.804 58.1835,105.137 57.5,105.5C 55.9246,104.544 54.258,103.877 52.5,103.5C 41.2053,94.6044 34.2053,82.9377 31.5,68.5C 31.3379,66.4727 31.5045,64.4727 32,62.5C 32.6976,65.0037 33.5309,67.337 34.5,69.5 Z"/></g>
<g><path style="opacity:1" fill="#3c6dac" d="M 28.5,55.5 C 29.2568,59.8811 30.2568,64.2144 31.5,68.5C 34.2053,82.9377 41.2053,94.6044 52.5,103.5C 56.398,108.445 61.398,111.278 67.5,112C 77.2623,106.734 85.2623,99.5678 91.5,90.5C 92.9245,88.9689 93.5912,89.3023 93.5,91.5C 87.5538,101.611 79.2205,109.111 68.5,114C 66.5,114.667 64.5,114.667 62.5,114C 44.4933,103.826 33.1599,88.6591 28.5,68.5C 27.507,62.8747 26.8404,57.208 26.5,51.5C 26.3505,50.448 26.5172,49.448 27,48.5C 27.1862,51.0356 27.6862,53.369 28.5,55.5 Z"/></g>
<g><path style="opacity:0.975" fill="#1771b8" d="M 34.5,96.5 C 35.1667,96.5 35.8333,96.5 36.5,96.5C 36.5,96.8333 36.5,97.1667 36.5,97.5C 36.5,98.1667 36.8333,98.5 37.5,98.5C 38.1667,99.1667 38.8333,99.8333 39.5,100.5C 39.5,101.167 39.8333,101.5 40.5,101.5C 43.3583,105.52 47.025,108.686 51.5,111C 52.2524,111.671 52.5858,112.504 52.5,113.5C 52.943,117.598 54.943,120.598 58.5,122.5C 58.0618,122.435 57.7284,122.601 57.5,123C 59.0368,124.11 59.7035,125.61 59.5,127.5C 55.8371,127.952 52.1704,128.452 48.5,129C 49.7119,130.107 49.3786,130.607 47.5,130.5C 40.0083,128.595 33.6749,124.929 28.5,119.5C 30.1373,118.026 31.1373,116.192 31.5,114C 30.5635,107.862 30.7302,101.695 32,95.5C 32.6008,97.3588 33.4341,97.6921 34.5,96.5 Z"/></g>
<g><path style="opacity:0.865" fill="#1e65af" d="M 85.5,107.5 C 86.3764,107.369 87.0431,107.702 87.5,108.5C 86.3517,112.147 86.3517,115.814 87.5,119.5C 86.8333,119.5 86.5,119.833 86.5,120.5C 85.1667,120.833 85.1667,121.167 86.5,121.5C 86.8977,123.711 87.0643,126.044 87,128.5C 87.9772,127.226 88.8106,127.226 89.5,128.5C 87.0822,129.866 84.4156,130.866 81.5,131.5C 70.0126,130.762 58.6793,130.428 47.5,130.5C 49.3786,130.607 49.7119,130.107 48.5,129C 52.1704,128.452 55.8371,127.952 59.5,127.5C 59.7035,125.61 59.0368,124.11 57.5,123C 57.7284,122.601 58.0618,122.435 58.5,122.5C 65.2764,125.58 71.443,124.58 77,119.5C 78.128,117.655 78.628,115.655 78.5,113.5C 79.1667,113.5 79.5,113.167 79.5,112.5C 81.4602,110.844 83.4602,109.177 85.5,107.5 Z"/></g>
<g><path style="opacity:0.647" fill="#d4d8dc" d="M 23.5,66.5 C 24.8195,67.9418 26.4862,68.6085 28.5,68.5C 33.1599,88.6591 44.4933,103.826 62.5,114C 64.5,114.667 66.5,114.667 68.5,114C 79.2205,109.111 87.5538,101.611 93.5,91.5C 96.6768,86.4798 99.3434,81.1465 101.5,75.5C 102.705,73.8624 104.038,73.5291 105.5,74.5C 105.09,78.3867 104.09,82.0534 102.5,85.5C 101.833,85.5 101.5,85.8333 101.5,86.5C 101.5,86.8333 101.5,87.1667 101.5,87.5C 100.833,87.5 100.5,87.8333 100.5,88.5C 100.5,88.8333 100.5,89.1667 100.5,89.5C 98.7497,90.6594 97.7497,92.326 97.5,94.5C 96.5,94.8333 95.8333,95.5 95.5,96.5C 94.8333,96.5 94.5,96.8333 94.5,97.5C 94.1667,98.1667 93.8333,98.8333 93.5,99.5C 92.8333,99.5 92.5,99.8333 92.5,100.5C 90.4032,103.053 88.0698,105.386 85.5,107.5C 83.4602,109.177 81.4602,110.844 79.5,112.5C 78.8333,112.5 78.5,112.833 78.5,113.5C 74.4954,115.502 70.4954,117.502 66.5,119.5C 61.5945,117.894 56.9278,115.894 52.5,113.5C 52.5858,112.504 52.2524,111.671 51.5,111C 47.025,108.686 43.3583,105.52 40.5,101.5C 39.8333,101.5 39.5,101.167 39.5,100.5C 38.8333,99.8333 38.1667,99.1667 37.5,98.5C 36.8333,98.5 36.5,98.1667 36.5,97.5C 36.5,97.1667 36.5,96.8333 36.5,96.5C 35.8333,95.1667 34.8333,94.1667 33.5,93.5C 32.8902,92.609 32.5569,91.609 32.5,90.5C 31.8333,90.5 31.5,90.1667 31.5,89.5C 30.8333,89.5 30.5,89.1667 30.5,88.5C 30.6716,87.5084 30.3382,86.8417 29.5,86.5C 26.6225,80.1261 24.6225,73.4594 23.5,66.5 Z"/></g>
<g><path style="opacity:1" fill="#e95349" d="M 51.5,84.5 C 51.5191,86.0603 51.8524,87.5603 52.5,89C 54.6277,90.6313 55.9611,92.798 56.5,95.5C 58.8948,94.4775 59.8948,95.4775 59.5,98.5C 61.143,98.5198 62.4763,97.8532 63.5,96.5C 64.776,101.682 65.4427,101.682 65.5,96.5C 67.143,96.4802 68.4763,97.1468 69.5,98.5C 70.1667,97.1667 70.8333,95.8333 71.5,94.5C 72.1667,94.8333 72.8333,95.1667 73.5,95.5C 74.1719,94.0508 74.8386,92.7175 75.5,91.5C 75.5,93.1667 75.5,94.8333 75.5,96.5C 77.099,96.2322 78.4324,96.5655 79.5,97.5C 76.3047,100.852 72.638,103.685 68.5,106C 65.2587,106.793 62.2587,106.293 59.5,104.5C 56.8562,102.031 54.0228,99.6976 51,97.5C 48.6148,94.6215 46.4482,91.6215 44.5,88.5C 46.2646,87.5386 48.2646,87.2053 50.5,87.5C 50.2627,86.209 50.596,85.209 51.5,84.5 Z"/></g>
<g><path style="opacity:1" fill="#e1dbdd" d="M 78.5,79.5 C 78.5,79.1667 78.5,78.8333 78.5,78.5C 83.5,78.5 88.5,78.5 93.5,78.5C 93.5,80.8333 93.5,83.1667 93.5,85.5C 92.8333,87.1667 92.1667,88.8333 91.5,90.5C 85.2623,99.5678 77.2623,106.734 67.5,112C 61.398,111.278 56.398,108.445 52.5,103.5C 54.258,103.877 55.9246,104.544 57.5,105.5C 58.1835,105.137 58.8501,104.804 59.5,104.5C 62.2587,106.293 65.2587,106.793 68.5,106C 72.638,103.685 76.3047,100.852 79.5,97.5C 84.9278,92.7301 89.2612,87.0635 92.5,80.5C 87.8804,79.5067 83.2137,79.1734 78.5,79.5 Z"/></g>
<g><path style="opacity:1" fill="#d69070" d="M 76.5,82.5 C 78.2926,82.8836 79.2926,84.0503 79.5,86C 78.8524,87.4397 78.5191,88.9397 78.5,90.5C 77.209,90.2627 76.209,90.596 75.5,91.5C 74.8386,92.7175 74.1719,94.0508 73.5,95.5C 72.8333,95.1667 72.1667,94.8333 71.5,94.5C 70.8333,95.8333 70.1667,97.1667 69.5,98.5C 68.4763,97.1468 67.143,96.4802 65.5,96.5C 65.4427,101.682 64.776,101.682 63.5,96.5C 62.4763,97.8532 61.143,98.5198 59.5,98.5C 59.8948,95.4775 58.8948,94.4775 56.5,95.5C 55.9611,92.798 54.6277,90.6313 52.5,89C 51.8524,87.5603 51.5191,86.0603 51.5,84.5C 51.4701,83.5028 51.9701,82.8361 53,82.5C 54.2502,84.7058 56.0835,86.0391 58.5,86.5C 58.3398,88.1992 58.5065,89.8659 59,91.5C 59.3076,90.6919 59.8076,90.0253 60.5,89.5C 61.2807,90.7366 62.2807,91.7366 63.5,92.5C 64.8847,88.6221 66.0514,88.6221 67,92.5C 69.8769,90.2548 72.7102,87.9215 75.5,85.5C 76.1272,84.5832 76.4606,83.5832 76.5,82.5 Z"/></g>
<g><path style="opacity:1" fill="#7cb0d6" d="M 61.5,75.5 C 70.8075,74.9533 73.4742,78.7866 69.5,87C 61.5688,89.7396 58.0688,86.9063 59,78.5C 60.045,77.6266 60.8783,76.6266 61.5,75.5 Z"/></g>
<g><path style="opacity:1" fill="#e94145" d="M 78.5,79.5 C 83.2137,79.1734 87.8804,79.5067 92.5,80.5C 89.2612,87.0635 84.9278,92.7301 79.5,97.5C 78.4324,96.5655 77.099,96.2322 75.5,96.5C 75.5,94.8333 75.5,93.1667 75.5,91.5C 76.209,90.596 77.209,90.2627 78.5,90.5C 78.5191,88.9397 78.8524,87.4397 79.5,86C 79.2926,84.0503 78.2926,82.8836 76.5,82.5C 75.1667,82.5 73.8333,82.5 72.5,82.5C 72.5,81.1667 72.5,79.8333 72.5,78.5C 74.5648,78.5172 76.5648,78.8505 78.5,79.5 Z"/></g>
<g><path style="opacity:0.28" fill="#e01935" d="M 49.5,132.5 C 58.1678,132.587 66.6678,132.587 75,132.5C 75.9454,132.905 76.6121,133.572 77,134.5C 78.049,132.893 79.549,132.227 81.5,132.5C 81.4208,133.93 81.7542,135.264 82.5,136.5C 82.1345,137.902 81.3012,138.902 80,139.5C 74.6685,139.357 69.1685,139.357 63.5,139.5C 63.6602,137.801 63.4935,136.134 63,134.5C 62.9024,136.619 62.0691,138.286 60.5,139.5C 57.0149,139.311 53.3482,139.311 49.5,139.5C 49.5,137.167 49.5,134.833 49.5,132.5 Z"/></g>
</svg>
